<?xml version="1.0" encoding="UTF-8"?>
<svg version="1.1" xmlns="http://www.w3.org/2000/svg" width="99" height="100">
<path d="M0 0 C32.67 0 65.34 0 99 0 C99 33 99 66 99 100 C66.33 100 33.66 100 0 100 C0 67 0 34 0 0 Z " fill="#FDFEFE" transform="translate(0,0)"/>
<path d="M0 0 C1.41375916 -0.0149778 1.41375916 -0.0149778 2.8560791 -0.03025818 C4.85322692 -0.0454415 6.85045077 -0.0524839 8.84765625 -0.05200195 C11.86851033 -0.05851241 14.88598494 -0.11284717 17.90625 -0.16992188 C31.43224137 -0.28897291 40.47603842 1.0453814 50.90625 10.31640625 C57.28535224 17.23925733 59.53465781 25.23825132 59.59375 34.50390625 C59.60792969 35.51453125 59.62210937 36.52515625 59.63671875 37.56640625 C59.00213121 45.65470846 53.40484379 52.90528052 47.65625 58.31640625 C39.18933999 65.19877166 31.08524889 66.10648299 20.40625 65.50390625 C20.40625 67.15390625 20.40625 68.80390625 20.40625 70.50390625 C16.39876347 69.91902984 13.54888232 68.6599605 10.09375 66.56640625 C9.21074219 66.04175781 8.32773437 65.51710938 7.41796875 64.9765625 C6.75410156 64.49058594 6.09023438 64.00460938 5.40625 63.50390625 C5.40625 62.84390625 5.40625 62.18390625 5.40625 61.50390625 C7.41796875 60.03125 7.41796875 60.03125 10.09375 58.44140625 C10.96386719 57.91417969 11.83398438 57.38695312 12.73046875 56.84375 C15.3405806 55.53678888 17.53234257 54.92334139 20.40625 54.50390625 C20.40625 55.82390625 20.40625 57.14390625 20.40625 58.50390625 C30.19829747 58.07688463 38.07213039 57.64502271 45.40625 50.50390625 C51.44423975 42.23151916 52.58785134 34.7557045 51.40625 24.50390625 C48.9185111 18.38355207 45.00587906 14.75950454 39.40625 11.50390625 C38.91125 10.51390625 38.91125 10.51390625 38.40625 9.50390625 C35.58663231 8.52917159 32.97027998 8.3816591 30.00488281 8.39038086 C29.1442926 8.39045639 28.28370239 8.39053192 27.39703369 8.39060974 C26.47710632 8.39577103 25.55717896 8.40093231 24.609375 8.40625 C23.66060486 8.40766495 22.71183472 8.4090799 21.73431396 8.41053772 C18.70826038 8.41612883 15.68228117 8.42867973 12.65625 8.44140625 C10.60286565 8.4464224 8.54948014 8.4509851 6.49609375 8.45507812 C1.46611724 8.46609536 -3.56380378 8.48335392 -8.59375 8.50390625 C-9.99310013 11.30260652 -9.84640405 13.40889417 -9.59375 16.50390625 C-8.63776304 18.32790494 -8.63776304 18.32790494 -6.59375 19.50390625 C-3.86927253 19.79919382 -1.36175425 19.92108766 1.36328125 19.91015625 C2.53415535 19.92641052 2.53415535 19.92641052 3.72868347 19.94299316 C6.22545623 19.9772713 8.72177288 19.99284385 11.21875 20.00390625 C14.49652972 20.01852076 17.77329822 20.05232436 21.05078125 20.09765625 C21.79785843 20.09463501 22.54493561 20.09161377 23.31465149 20.08850098 C29.32665885 20.17404416 33.31262136 21.63065957 37.78125 25.62890625 C40.07185161 29.6815091 40.55763135 32.96610918 39.40625 37.50390625 C37.05691162 41.13470192 34.3213203 44.5463711 30.40625 46.50390625 C27.91319331 46.61208953 25.44305694 46.66521764 22.94921875 46.6796875 C21.42902268 46.70289052 19.90884035 46.72700805 18.38867188 46.75195312 C15.99233881 46.78703099 13.59650943 46.81639077 11.19995117 46.82983398 C8.8865859 46.84535031 6.57469294 46.88558381 4.26171875 46.9296875 C3.55009079 46.92777908 2.83846283 46.92587067 2.10527039 46.92390442 C-2.72069375 47.0420049 -5.20063853 48.08200232 -8.59375 51.50390625 C-10.5880916 55.49258945 -9.77860036 60.55624707 -9.78125 64.94140625 C-9.79349609 66.00423828 -9.80574219 67.06707031 -9.81835938 68.16210938 C-9.82029297 69.18111328 -9.82222656 70.20011719 -9.82421875 71.25 C-9.83038208 72.65270142 -9.83038208 72.65270142 -9.83666992 74.08374023 C-9.75860344 76.76452401 -9.75860344 76.76452401 -7.59375 79.50390625 C-5.61627878 79.86688561 -5.61627878 79.86688561 -3.46875 79.69140625 C-2.19 79.62953125 -0.91125 79.56765625 0.40625 79.50390625 C1.40884507 76.49612104 1.70939642 73.96569978 1.96875 70.81640625 C2.05253906 69.82253906 2.13632812 68.82867187 2.22265625 67.8046875 C2.28324219 67.04542969 2.34382813 66.28617187 2.40625 65.50390625 C4.89986571 66.70772073 7.08768083 67.95819347 9.40625 69.50390625 C10.42127462 73.36729454 10.20363993 77.08986811 8.234375 80.58203125 C4.54415729 85.10920556 1.33910669 87.19190022 -4.53125 87.81640625 C-8.30295653 87.43153824 -10.44068242 86.62879962 -13.59375 84.50390625 C-18.05136359 78.4849144 -18.17760836 73.40793024 -18.03125 66.06640625 C-18.03833984 65.06802734 -18.04542969 64.06964844 -18.05273438 63.04101562 C-17.99375815 56.14079678 -17.47109527 49.95018115 -12.875 44.4453125 C-11.99328125 43.76275391 -11.99328125 43.76275391 -11.09375 43.06640625 C-10.5059375 42.59332031 -9.918125 42.12023438 -9.3125 41.6328125 C-5.49275713 39.12393593 -1.58070329 39.32361152 2.8125 39.2578125 C4.29297493 39.22488618 5.77344354 39.19167433 7.25390625 39.15820312 C9.58443022 39.11072676 11.91492633 39.06626047 14.24560547 39.02709961 C16.49733407 38.98740796 18.74855233 38.93587264 21 38.8828125 C21.6969397 38.87439835 22.39387939 38.86598419 23.11193848 38.85731506 C26.74580869 38.76438763 28.29776405 38.57623022 31.40625 36.50390625 C31.90625 33.00390625 31.90625 33.00390625 31.40625 29.50390625 C27.57280135 26.94827381 24.45122095 27.2425942 20.01171875 27.265625 C18.31704931 27.25020246 16.6223877 27.23389861 14.92773438 27.21679688 C12.2614614 27.20036111 9.59576269 27.1914009 6.92944336 27.19848633 C4.35204495 27.20111365 1.7763845 27.17293265 -0.80078125 27.140625 C-1.59160599 27.15083176 -2.38243073 27.16103851 -3.19721985 27.17155457 C-9.00189858 27.06957601 -11.53849991 25.6746972 -15.59375 21.50390625 C-17.87841838 17.55766087 -18.06784741 14.00783168 -17.59375 9.50390625 C-13.07841392 1.11828211 -8.96787191 0.0331126 0 0 Z " fill="#4BAEB3" transform="translate(31.59375,6.49609375)"/>
<path d="M0 0 C1.1165522 0.00094414 1.1165522 0.00094414 2.25566101 0.00190735 C3.10026382 -0.00432144 3.94486664 -0.01055023 4.81506348 -0.01696777 C5.72962814 -0.00775803 6.64419281 0.00145172 7.58647156 0.01094055 C8.99608406 0.01019279 8.99608406 0.01019279 10.43417358 0.00942993 C12.42563486 0.01177352 14.41709892 0.02151873 16.40849304 0.03804016 C19.45051243 0.06154656 22.49165059 0.0586139 25.53373718 0.05195618 C27.46798718 0.05753581 29.4022335 0.06464748 31.33647156 0.07344055 C32.69920952 0.07207344 32.69920952 0.07207344 34.08947754 0.07067871 C39.59886802 0.1321681 43.90283455 0.32804002 48.16069031 4.1867218 C48.82069031 4.9085968 49.48069031 5.6304718 50.16069031 6.3742218 C50.98569031 7.1579718 51.81069031 7.9417218 52.66069031 8.7492218 C57.61825749 13.95466734 59.42832393 17.02291016 59.59819031 24.3117218 C59.29824501 33.53262071 56.31657883 39.51778422 50.16069031 46.3742218 C44.43644536 50.83913286 40.55342926 51.50814919 33.41069031 51.4367218 C32.24022156 51.42769836 31.06975281 51.41867493 29.86381531 51.40937805 C28.97178406 51.39777649 28.07975281 51.38617493 27.16069031 51.3742218 C27.16069031 50.0542218 27.16069031 48.7342218 27.16069031 47.3742218 C22.99893522 48.80482511 19.57524125 50.93935636 15.93022156 53.3507843 C14.16069031 54.3742218 14.16069031 54.3742218 12.16069031 54.3742218 C12.16069031 55.0342218 12.16069031 55.6942218 12.16069031 56.3742218 C13.06819031 56.6217218 13.97569031 56.8692218 14.91069031 57.1242218 C18.2642052 58.41403522 19.83777267 59.69393222 22.16069031 62.3742218 C21.50069031 62.3742218 20.84069031 62.3742218 20.16069031 62.3742218 C20.07819031 63.3642218 19.99569031 64.3542218 19.91069031 65.3742218 C19.26313087 69.78122352 17.82851974 73.77616237 15.16069031 77.3742218 C12.41069031 78.3742218 12.41069031 78.3742218 10.16069031 78.3742218 C10.98569031 77.4048468 11.81069031 76.4354718 12.66069031 75.4367218 C15.25858098 71.77436589 15.95593216 68.86385033 15.73490906 64.3976593 C15.24772457 61.96931082 15.24772457 61.96931082 12.16069031 59.8117218 C11.17069031 59.3373468 10.18069031 58.8629718 9.16069031 58.3742218 C9.20709656 59.12187805 9.25350281 59.8695343 9.30131531 60.6398468 C9.59509319 68.65578626 9.59509319 68.65578626 7.53569031 72.0617218 C4.44705496 73.76859923 2.63589552 73.96574609 -0.83930969 73.3742218 C-5.15530738 68.92446386 -4.35384975 63.84432496 -4.33930969 57.9992218 C-4.38184875 56.45621399 -4.38184875 56.45621399 -4.42524719 54.8820343 C-4.44705078 46.42224391 -4.44705078 46.42224391 -1.43305969 42.7101593 C2.59042162 39.08660234 5.38719854 39.24106541 10.58256531 39.2335968 C12.09820526 39.21526228 13.61383066 39.19569137 15.12944031 39.17500305 C17.5170585 39.14608896 19.90374531 39.12422323 22.29154968 39.12373352 C24.59772706 39.1203843 26.90176209 39.08574727 29.20756531 39.0460968 C29.91403198 39.0531665 30.62049866 39.06023621 31.34837341 39.06752014 C37.03211911 38.92904967 39.3052461 37.25545494 43.16069031 33.3742218 C45.84843008 29.34261215 45.83484964 26.10998302 45.16069031 21.3742218 C42.79693146 17.25953048 40.62037688 15.75466422 36.16069031 14.3742218 C33.38831709 14.18834254 30.70898374 14.09709633 27.93803406 14.1007843 C26.33190716 14.08050604 24.72578741 14.05965547 23.11967468 14.0382843 C20.60260446 14.01564568 18.08581684 13.99919314 15.56864929 13.99336243 C13.12876667 13.98384558 10.69013613 13.95009627 8.25053406 13.9132843 C7.49940842 13.91832977 6.74828278 13.92337524 5.97439575 13.92857361 C2.49001299 13.86295697 0.51183157 13.63484066 -2.32148743 11.53193665 C-4.35802312 8.63682608 -4.28200311 6.8419869 -3.83930969 3.3742218 C-1.83930969 0.3742218 -1.83930969 0.3742218 0 0 Z " fill="#F2FCFB" transform="translate(24.839309692382813,13.625778198242188)"/>
<path d="M0 0 C6.04644231 -0.14958846 12.09178113 -0.25779655 18.13964844 -0.32958984 C20.19192292 -0.35955241 22.24407166 -0.40033783 24.29589844 -0.45263672 C38.99170886 -0.81752782 49.07710605 -0.33202441 60.5 9.8125 C66.87910224 16.73535108 69.12840781 24.73434507 69.1875 34 C69.20167969 35.010625 69.21585937 36.02125 69.23046875 37.0625 C68.59588121 45.15080221 62.99859379 52.40137427 57.25 57.8125 C48.78308999 64.69486541 40.67899889 65.60257674 30 65 C30 66.65 30 68.3 30 70 C25.99251347 69.41512359 23.14263232 68.15605425 19.6875 66.0625 C18.80449219 65.53785156 17.92148437 65.01320313 17.01171875 64.47265625 C16.01591797 63.74369141 16.01591797 63.74369141 15 63 C15 62.34 15 61.68 15 61 C17.01171875 59.52734375 17.01171875 59.52734375 19.6875 57.9375 C20.55761719 57.41027344 21.42773438 56.88304687 22.32421875 56.33984375 C24.9343306 55.03288263 27.12609257 54.41943514 30 54 C30 55.32 30 56.64 30 58 C39.79204747 57.57297838 47.66588039 57.14111646 55 50 C61.03798975 41.72761291 62.18160134 34.25179825 61 24 C58.5122611 17.87964582 54.59962906 14.25559829 49 11 C48.505 10.01 48.505 10.01 48 9 C45.25746121 8.06670585 42.66376115 7.85693311 39.78222656 7.79467773 C38.96167786 7.77473251 38.14112915 7.75478729 37.29571533 7.73423767 C36.41953552 7.71752518 35.54335571 7.70081268 34.640625 7.68359375 C33.73624695 7.66281265 32.8318689 7.64203156 31.90008545 7.62062073 C29.01679945 7.5553406 26.1334239 7.49634048 23.25 7.4375 C21.29295956 7.39429429 19.33592812 7.35067935 17.37890625 7.30664062 C12.5860288 7.19968128 7.79306146 7.09835327 3 7 C3 6.67 3 6.34 3 6 C18.345 5.505 18.345 5.505 34 5 C33.505 3.515 33.505 3.515 33 2 C22.11 1.67 11.22 1.34 0 1 C0 0.67 0 0.34 0 0 Z " fill="#6FCBA9" transform="translate(22,7)"/>
<path d="M0 0 C1.50971254 0.03013269 3.01948289 0.0575027 4.52929688 0.08203125 C8.2082428 0.14777782 11.88499967 0.25111427 15.5625 0.375 C15.5625 0.705 15.5625 1.035 15.5625 1.375 C13.2525 1.375 10.9425 1.375 8.5625 1.375 C8.5625 2.035 8.5625 2.695 8.5625 3.375 C14.0075 3.87 14.0075 3.87 19.5625 4.375 C19.5625 4.705 19.5625 5.035 19.5625 5.375 C18.65483887 5.37910889 17.74717773 5.38321777 16.81201172 5.38745117 C13.42304374 5.41452653 10.03585887 5.46370578 6.64746094 5.52758789 C5.18500818 5.55069115 3.72239085 5.56514558 2.25976562 5.57055664 C0.14870576 5.57990398 -1.95979366 5.62100821 -4.0703125 5.66796875 C-5.33762207 5.6836792 -6.60493164 5.69938965 -7.91064453 5.71557617 C-12.51259797 6.5760134 -14.14296862 8.10736149 -17.4375 11.375 C-19.4318416 15.3636832 -18.62235036 20.42734082 -18.625 24.8125 C-18.63724609 25.87533203 -18.64949219 26.93816406 -18.66210938 28.03320312 C-18.66404297 29.05220703 -18.66597656 30.07121094 -18.66796875 31.12109375 C-18.67413208 32.52379517 -18.67413208 32.52379517 -18.68041992 33.95483398 C-18.60235344 36.63561776 -18.60235344 36.63561776 -16.4375 39.375 C-14.46002878 39.73797936 -14.46002878 39.73797936 -12.3125 39.5625 C-11.03375 39.500625 -9.755 39.43875 -8.4375 39.375 C-7.43490493 36.36721479 -7.13435358 33.83679353 -6.875 30.6875 C-6.79121094 29.69363281 -6.70742188 28.69976562 -6.62109375 27.67578125 C-6.53021484 26.53689453 -6.53021484 26.53689453 -6.4375 25.375 C-3.94388429 26.57881448 -1.75606917 27.82928722 0.5625 29.375 C1.57752462 33.23838829 1.35988993 36.96096186 -0.609375 40.453125 C-4.29959271 44.98029931 -7.50464331 47.06299397 -13.375 47.6875 C-17.14670653 47.30263199 -19.28443242 46.49989337 -22.4375 44.375 C-26.89511359 38.35600815 -27.02135836 33.27902399 -26.875 25.9375 C-26.88208984 24.93912109 -26.88917969 23.94074219 -26.89648438 22.91210938 C-26.83090503 15.23932552 -26.01882557 8.79704743 -20.77734375 2.8984375 C-15.04607869 -1.55569483 -6.87305279 -0.23847581 0 0 Z " fill="#3E95BE" transform="translate(40.4375,46.625)"/>
<path d="M0 0 C1.32 0 2.64 0 4 0 C4 1.65 4 3.3 4 5 C17.022986 4.76229425 17.022986 4.76229425 29 0 C29.495 2.475 29.495 2.475 30 5 C28.3970947 5.81498562 26.79262722 6.62689927 25.1875 7.4375 C24.29417969 7.88996094 23.40085938 8.34242187 22.48046875 8.80859375 C18.20848022 10.86049375 15.01664568 11.1090757 10.3125 11.0625 C8.54326172 11.04896484 8.54326172 11.04896484 6.73828125 11.03515625 C5.83464844 11.02355469 4.93101563 11.01195313 4 11 C4 12.65 4 14.3 4 16 C-0.00748653 15.41512359 -2.85736768 14.15605425 -6.3125 12.0625 C-7.19550781 11.53785156 -8.07851563 11.01320313 -8.98828125 10.47265625 C-9.65214844 9.98667969 -10.31601562 9.50070313 -11 9 C-11 8.34 -11 7.68 -11 7 C-8.84765625 5.52734375 -8.84765625 5.52734375 -6.0625 3.9375 C-2.84169663 2.22531095 -2.84169663 2.22531095 0 0 Z " fill="#38A2B2" transform="translate(48,61)"/>
<path d="M0 0 C2.64208106 2.04761282 4.65003679 3.75621183 5.578125 7.0546875 C5.95736617 12.03653741 4.87687665 14.7106793 1.625 18.5 C-1.38523216 21.62172224 -2.80306552 22.95827152 -7.25634766 23.11352539 C-8.64226269 23.11336691 -10.02818392 23.10770937 -11.4140625 23.09765625 C-12.14370209 23.0962413 -12.87334167 23.09482635 -13.62509155 23.09336853 C-15.95843585 23.08776531 -18.29168464 23.07521235 -20.625 23.0625 C-22.20572778 23.05748541 -23.78645707 23.05292243 -25.3671875 23.04882812 C-29.24482854 23.03779484 -33.12239807 23.02052811 -37 23 C-37 22.67 -37 22.34 -37 22 C-27.595 21.505 -27.595 21.505 -18 21 C-17.67 20.01 -17.34 19.02 -17 18 C-24.26 17.67 -31.52 17.34 -39 17 C-39 16.67 -39 16.34 -39 16 C-38.01604248 15.98018066 -37.03208496 15.96036133 -36.01831055 15.93994141 C-32.36717161 15.86386013 -28.71642991 15.775147 -25.06567383 15.68261719 C-23.48567549 15.64433779 -21.90559031 15.60948303 -20.32543945 15.578125 C-18.05388355 15.53245124 -15.78292491 15.47446216 -13.51171875 15.4140625 C-12.80536789 15.40251129 -12.09901703 15.39096008 -11.3712616 15.37905884 C-7.72258607 15.26928952 -6.11786454 15.07857636 -3 13 C-2.40916035 8.20188123 -2.40916035 8.20188123 -4.5 4.0625 C-4.995 3.711875 -5.49 3.36125 -6 3 C-3.525 3.495 -3.525 3.495 -1 4 C-0.67 2.68 -0.34 1.36 0 0 Z " fill="#59B6B5" transform="translate(66,30)"/>
<path d="M0 0 C0.99 0.33 1.98 0.66 3 1 C3.25 4.3125 3.25 4.3125 3 8 C0.62737713 10.60426176 -0.85004425 10.98359638 -4.37231445 11.36889648 C-5.6893335 11.36962158 -7.00635254 11.37034668 -8.36328125 11.37109375 C-9.82226789 11.38848247 -11.28125222 11.40606678 -12.74023438 11.42382812 C-15.02437765 11.43387316 -17.30836491 11.4375031 -19.5925293 11.43579102 C-21.80824312 11.43938601 -24.02277917 11.4668224 -26.23828125 11.49609375 C-26.91143875 11.48791122 -27.58459625 11.4797287 -28.27815247 11.47129822 C-33.66389298 11.55480424 -36.65477787 13.03846133 -41 16 C-45.04594309 21.11066496 -46.12495476 24.89178088 -46.1328125 31.28125 C-46.13410156 32.28800781 -46.13539062 33.29476562 -46.13671875 34.33203125 C-46.13285156 35.37746094 -46.12898438 36.42289063 -46.125 37.5 C-46.12886719 38.54542969 -46.13273437 39.59085938 -46.13671875 40.66796875 C-46.13542969 41.67472656 -46.13414063 42.68148437 -46.1328125 43.71875 C-46.13168457 44.63591797 -46.13055664 45.55308594 -46.12939453 46.49804688 C-46.00978544 48.81079015 -45.65210743 50.78529551 -45 53 C-45.99 53 -46.98 53 -48 53 C-49.95852762 49.08294476 -49.18484144 44.18187144 -49.1875 39.875 C-49.19974609 38.8540625 -49.21199219 37.833125 -49.22460938 36.78125 C-49.23984226 28.88046125 -48.19352194 22.29947872 -45 15 C-44.01 15 -43.02 15 -42 15 C-42 14.34 -42 13.68 -42 13 C-41.01 13 -40.02 13 -39 13 C-39 12.34 -39 11.68 -39 11 C-34.88087735 7.71529292 -31.66022969 7.7001493 -26.51171875 7.92578125 C-25.80852005 7.95222214 -25.10532135 7.97866302 -24.3808136 8.00590515 C-22.14880227 8.09323454 -19.91849873 8.20252627 -17.6875 8.3125 C-16.16867976 8.37580441 -14.64979877 8.43766891 -13.13085938 8.49804688 C-9.4197238 8.64870131 -5.70979629 8.81905751 -2 9 C-2 8.34 -2 7.68 -2 7 C-1.34 7 -0.68 7 0 7 C0 4.69 0 2.38 0 0 Z " fill="#CAF1F8" transform="translate(61,35)"/>
<path d="M0 0 C0.99 0.33 1.98 0.66 3 1 C4.17223497 7.22838101 4.30115072 11.3261472 1 17 C-1.21712234 19.78246395 -3.55272795 22.41863085 -6 25 C-6.99 24.01 -7.98 23.02 -9 22 C-9.99 22.66 -10.98 23.32 -12 24 C-18.46593851 27.32667851 -25.94072945 26.30841473 -33 26 C-33 25.67 -33 25.34 -33 25 C-31.71416016 24.94392578 -31.71416016 24.94392578 -30.40234375 24.88671875 C-21.42586229 24.37059637 -14.68289776 23.50703203 -8 17 C-4.01648669 11.78349447 -1.78705279 6.27647808 0 0 Z " fill="#4FBC9F" transform="translate(85,40)"/>
<path d="M0 0 C0.99 0 1.98 0 3 0 C2.83322754 0.56154785 2.66645508 1.1230957 2.49462891 1.70166016 C1.96169776 4.17797496 1.96040481 6.24640988 2.0859375 8.7734375 C2.12976563 9.6809375 2.17359375 10.5884375 2.21875 11.5234375 C2.2703125 12.46445313 2.321875 13.40546875 2.375 14.375 C2.41882813 15.30828125 2.46265625 16.2415625 2.5078125 17.203125 C2.74581899 21.87069663 3.09309401 26.40398489 4 31 C9.91972236 32.28844126 9.91972236 32.28844126 15.375 30.5 C15.91125 30.005 16.4475 29.51 17 29 C17.99 29.33 18.98 29.66 20 30 C14 36 14 36 10.1875 36.125 C8.7914197 36.09264876 7.39549078 36.05188713 6 36 C5.2575 35.979375 4.515 35.95875 3.75 35.9375 C0.55839386 34.227711 -0.79630869 31.27064638 -2 28 C-2.52802791 23.73769775 -2.46876627 19.53857321 -2.375 15.25 C-2.37306641 13.54650391 -2.37306641 13.54650391 -2.37109375 11.80859375 C-2.2815608 3.42234121 -2.2815608 3.42234121 0 0 Z " fill="#278FD3" transform="translate(18,56)"/>
<path d="M0 0 C1.05692047 0.00636726 1.05692047 0.00636726 2.13519287 0.01286316 C4.37698212 0.02960337 6.61785931 0.06724471 8.859375 0.10546875 C10.38279948 0.12052171 11.90623811 0.13420905 13.4296875 0.14648438 C17.15654441 0.17949084 20.88287063 0.23124021 24.609375 0.29296875 C24.609375 0.62296875 24.609375 0.95296875 24.609375 1.29296875 C22.299375 1.29296875 19.989375 1.29296875 17.609375 1.29296875 C17.609375 1.95296875 17.609375 2.61296875 17.609375 3.29296875 C23.054375 3.78796875 23.054375 3.78796875 28.609375 4.29296875 C28.609375 4.62296875 28.609375 4.95296875 28.609375 5.29296875 C27.24002808 5.32269775 27.24002808 5.32269775 25.84301758 5.35302734 C22.44155028 5.43133139 19.04050896 5.518031 15.6394043 5.61035156 C14.17008638 5.64852827 12.70067861 5.68340057 11.23120117 5.71484375 C9.11344386 5.76074164 6.9962991 5.81869247 4.87890625 5.87890625 C3.60635986 5.91032715 2.33381348 5.94174805 1.02270508 5.97412109 C-2.19955402 6.27512033 -4.48824111 6.91088118 -7.390625 8.29296875 C-7.390625 7.63296875 -7.390625 6.97296875 -7.390625 6.29296875 C-8.710625 6.29296875 -10.030625 6.29296875 -11.390625 6.29296875 C-11.390625 3.29296875 -11.390625 3.29296875 -9.85253906 1.6237793 C-6.4573012 -0.21154811 -3.84759984 -0.04580476 0 0 Z " fill="#41A5B2" transform="translate(31.390625,46.70703125)"/>
<path d="M0 0 C2.83727325 -0.26667539 5.45383045 -0.34791234 8.2890625 -0.29296875 C9.10748627 -0.28872391 9.92591003 -0.28447906 10.76913452 -0.28010559 C13.38808836 -0.26328679 16.00627802 -0.22562974 18.625 -0.1875 C20.3984264 -0.17245726 22.17186484 -0.15876814 23.9453125 -0.14648438 C28.2971703 -0.11337292 32.64845551 -0.06156952 37 0 C36.01 0.66 35.02 1.32 34 2 C34 2.66 34 3.32 34 4 C27.22075306 5.18462612 20.43053054 5.33394034 13.5625 5.5625 C12.35400391 5.60568359 11.14550781 5.64886719 9.90039062 5.69335938 C6.93369394 5.79889404 3.96692098 5.90100714 1 6 C2.25541557 3.48916886 3.50063488 3.12874554 6 2 C3.36 2.33 0.72 2.66 -2 3 C-1.34 2.01 -0.68 1.02 0 0 Z " fill="#47B1A6" transform="translate(22,8)"/>
<path d="M0 0 C13.86 0 27.72 0 42 0 C42.66 1.32 43.32 2.64 44 4 C44.66 4.33 45.32 4.66 46 5 C45.67 5.66 45.34 6.32 45 7 C31.14 7 17.28 7 3 7 C3 6.67 3 6.34 3 6 C18.345 5.505 18.345 5.505 34 5 C33.505 3.515 33.505 3.515 33 2 C22.11 1.67 11.22 1.34 0 1 C0 0.67 0 0.34 0 0 Z " fill="#6BC0AF" transform="translate(22,7)"/>
<path d="M0 0 C0.33 0.66 0.66 1.32 1 2 C2.32 2 3.64 2 5 2 C5.33 2.99 5.66 3.98 6 5 C5.00066669 6.33383309 4.00058821 7.66710803 3 9 C2.50241248 11.40554294 2.50241248 11.40554294 2.48828125 13.984375 C2.45283203 14.91894531 2.41738281 15.85351562 2.38085938 16.81640625 C2.35830078 17.78449219 2.33574219 18.75257812 2.3125 19.75 C2.27833984 20.73355469 2.24417969 21.71710938 2.20898438 22.73046875 C2.12664727 25.15353199 2.05745162 27.57623998 2 30 C1.67 30 1.34 30 1 30 C0.77365689 26.5842767 0.57207887 23.16752678 0.375 19.75 C0.31054688 18.78191406 0.24609375 17.81382813 0.1796875 16.81640625 C0.128125 15.88183594 0.0765625 14.94726562 0.0234375 13.984375 C-0.02893066 13.12553711 -0.08129883 12.26669922 -0.13525391 11.38183594 C0.0129922 8.77120603 0.67701518 7.23056144 2 5 C1.01 5 0.02 5 -1 5 C-2.66134997 9.98404992 -2.22649351 15.15655935 -2.25 20.375 C-2.270625 21.51195313 -2.29125 22.64890625 -2.3125 23.8203125 C-2.32023437 25.46773437 -2.32023437 25.46773437 -2.328125 27.1484375 C-2.3374707 28.15052246 -2.34681641 29.15260742 -2.35644531 30.18505859 C-1.94517827 33.43294149 -0.68548721 35.23828681 1 38 C0.67 38.99 0.34 39.98 0 41 C-5.06855207 34.6620102 -5.72728014 29.46513577 -5.5 21.5 C-5.50257812 20.50613281 -5.50515625 19.51226562 -5.5078125 18.48828125 C-5.41912804 11.77486786 -4.99822664 4.99822664 0 0 Z " fill="#4899C5" transform="translate(19,51)"/>
<path d="M0 0 C7.0782361 1.86786786 12.7780215 4.7780215 18 10 C18.04080783 11.99958364 18.04254356 14.00045254 18 16 C13.48292068 15.4685789 10.61312423 13.70984317 7 11 C6.67 10.34 6.34 9.68 6 9 C5.34 8.731875 4.68 8.46375 4 8.1875 C2 7 2 7 1.3125 4.5 C1.209375 3.675 1.10625 2.85 1 2 C0.67 1.34 0.34 0.68 0 0 Z " fill="#66CBA2" transform="translate(64,7)"/>
<path d="M0 0 C0.33 0.66 0.66 1.32 1 2 C1.928125 2.28875 2.85625 2.5775 3.8125 2.875 C7.18974227 4.06696786 8.68562449 5.32956672 11 8 C10.34 8 9.68 8 9 8 C8.9175 8.99 8.835 9.98 8.75 11 C8.10244056 15.40700172 6.66782943 19.40194057 4 23 C1.25 24 1.25 24 -1 24 C-0.175 23.030625 0.65 22.06125 1.5 21.0625 C4.09789068 17.40014409 4.79524186 14.48962853 4.57421875 10.0234375 C4.08703426 7.59508902 4.08703426 7.59508902 1 5.4375 C0.01 4.963125 -0.98 4.48875 -2 4 C-1.95359375 4.74765625 -1.9071875 5.4953125 -1.859375 6.265625 C-1.56559711 14.28156446 -1.56559711 14.28156446 -3.625 17.6875 C-6.67305085 19.37194916 -8.57027683 19.52191439 -12 19 C-12.66 18.01 -13.32 17.02 -14 16 C-11.03 16.33 -8.06 16.66 -5 17 C-5 16.01 -5 15.02 -5 14 C-4.34 14 -3.68 14 -3 14 C-3.33 10.37 -3.66 6.74 -4 3 C-3.01 2.67 -2.02 2.34 -1 2 C-0.67 1.34 -0.34 0.68 0 0 Z " fill="#C9EEF8" transform="translate(36,68)"/>
<path d="M0 0 C5.67420636 -0.07460523 11.34812208 -0.12881608 17.02270508 -0.16479492 C18.94983906 -0.17980652 20.87693932 -0.20022216 22.80395508 -0.22631836 C25.58683639 -0.26303943 28.36926288 -0.27980292 31.15234375 -0.29296875 C32.00271713 -0.30845261 32.85309052 -0.32393646 33.72923279 -0.33988953 C40.01886515 -0.3416272 46.76953207 0.27620052 51.75450134 4.47932434 C53 6 53 6 53 8 C50.23758226 6.91177483 47.57771591 5.78857346 44.91967773 4.45776367 C40.44441523 2.5448089 36.15877199 2.52399962 31.34765625 2.48828125 C30.44752304 2.47033005 29.54738983 2.45237885 28.61997986 2.43388367 C25.76753309 2.38004755 22.91525107 2.34597112 20.0625 2.3125 C18.11911783 2.27930332 16.17575733 2.2448115 14.23242188 2.20898438 C9.48840064 2.12433659 4.744426 2.05739864 0 2 C0 1.34 0 0.68 0 0 Z " fill="#CCF5F0" transform="translate(25,5)"/>
<path d="M0 0 C5.0353859 -0.04954963 10.0706289 -0.08579037 15.10620117 -0.10986328 C16.81814039 -0.11990208 18.53006255 -0.13353595 20.24194336 -0.15087891 C22.70691142 -0.17522073 25.17165215 -0.18650438 27.63671875 -0.1953125 C28.77919319 -0.21079636 28.77919319 -0.21079636 29.94474792 -0.22659302 C34.08082741 -0.22746036 37.2812059 0.14221003 41 2 C41 3.65 41 5.3 41 7 C40.34 7.33 39.68 7.66 39 8 C38.33613281 7.70351563 37.67226563 7.40703125 36.98828125 7.1015625 C32.75611292 5.54146907 28.66564458 5.53529153 24.1875 5.375 C23.30384766 5.33632813 22.42019531 5.29765625 21.50976562 5.2578125 C19.34017028 5.16399216 17.17011453 5.08092674 15 5 C15 4.67 15 4.34 15 4 C19.62 3.67 24.24 3.34 29 3 C29 2.67 29 2.34 29 2 C19.43 1.67 9.86 1.34 0 1 C0 0.67 0 0.34 0 0 Z " fill="#4AAF9F" transform="translate(25,27)"/>
<path d="M0 0 C0.66 0 1.32 0 2 0 C4.41437154 9.91802986 4.41437154 9.91802986 2.875 13.9375 C1.946875 14.9584375 1.946875 14.9584375 1 16 C0.0409375 17.11375 0.0409375 17.11375 -0.9375 18.25 C-4.79827074 21.52580547 -9.0055421 21.16038961 -13.92578125 21.28125 C-14.92450508 21.30886414 -14.92450508 21.30886414 -15.94340515 21.33703613 C-18.06635041 21.39555259 -20.18937556 21.44842222 -22.3125 21.5 C-25.10040762 21.56823885 -27.88809642 21.64200297 -30.67578125 21.71875 C-31.91239502 21.74904297 -33.14900879 21.77933594 -34.4230957 21.81054688 C-37.99930042 21.99996295 -41.46462677 22.43937906 -45 23 C-43.9699707 21.52099609 -43.9699707 21.52099609 -42 20 C-39.4162045 19.72904719 -37.06178228 19.63023936 -34.48046875 19.6640625 C-32.9680947 19.65154584 -31.45572489 19.63850853 -29.94335938 19.625 C-27.56682212 19.62107711 -25.1907058 19.62498021 -22.81420898 19.63964844 C-20.51483178 19.64825765 -18.21719315 19.62647012 -15.91796875 19.6015625 C-15.21463913 19.61490631 -14.51130951 19.62825012 -13.78666687 19.64199829 C-8.09958452 19.55752758 -5.85243755 17.88140325 -2 14 C0.28062828 10.57905758 0.21925007 9.31812778 0.125 5.3125 C0.10695312 4.31863281 0.08890625 3.32476562 0.0703125 2.30078125 C0.04710937 1.54152344 0.02390625 0.78226563 0 0 Z " fill="#DAF7F4" transform="translate(70,33)"/>
<path d="M0 0 C2 3 2 3 2 5 C0.3970947 5.81498562 -1.20737278 6.62689927 -2.8125 7.4375 C-3.70582031 7.88996094 -4.59914063 8.34242187 -5.51953125 8.80859375 C-9.62755638 10.78173968 -12.66939564 11.11108177 -17.1875 11.0625 C-18.81751953 11.04896484 -18.81751953 11.04896484 -20.48046875 11.03515625 C-21.31191406 11.02355469 -22.14335938 11.01195313 -23 11 C-23 10.67 -23 10.34 -23 10 C-21.71802734 9.81824219 -21.71802734 9.81824219 -20.41015625 9.6328125 C-19.30542969 9.46523437 -18.20070313 9.29765625 -17.0625 9.125 C-15.96035156 8.96257812 -14.85820313 8.80015625 -13.72265625 8.6328125 C-12.37494141 8.31957031 -12.37494141 8.31957031 -11 8 C-10.67 7.34 -10.34 6.68 -10 6 C-14.29 6 -18.58 6 -23 6 C-23 5.67 -23 5.34 -23 5 C-22.01 4.97421875 -21.02 4.9484375 -20 4.921875 C-12.5069706 4.63269697 -6.4889178 4.10523371 0 0 Z " fill="#49A3AA" transform="translate(76,61)"/>
<path d="M0 0 C1 2 1 2 0.44140625 4.1640625 C0.15136719 4.97617187 -0.13867188 5.78828125 -0.4375 6.625 C-0.86869141 7.85089844 -0.86869141 7.85089844 -1.30859375 9.1015625 C-1.53675781 9.72804688 -1.76492187 10.35453125 -2 11 C-0.68 10.34 0.64 9.68 2 9 C0.60667426 12.36720387 -0.9789286 13.9859524 -4 16 C-4.66 15.01 -5.32 14.02 -6 13 C-6.99 13.66 -7.98 14.32 -9 15 C-15.46593851 18.32667851 -22.94072945 17.30841473 -30 17 C-30 16.67 -30 16.34 -30 16 C-29.14277344 15.96261719 -28.28554688 15.92523438 -27.40234375 15.88671875 C-18.42586229 15.37059637 -11.68289776 14.50703203 -5 8 C-3.19469501 5.40891488 -1.56422814 2.74239146 0 0 Z " fill="#62BCB1" transform="translate(82,49)"/>
<path d="M0 0 C0.33 0 0.66 0 1 0 C1.309375 1.11375 1.61875 2.2275 1.9375 3.375 C2.82326483 6.7945155 2.82326483 6.7945155 4 9 C6.96851338 9.80083627 9.92958444 10.07015009 13 10 C15.34261608 8.62073227 15.34261608 8.62073227 17 7 C17.99 7.33 18.98 7.66 20 8 C14 14 14 14 10.1875 14.125 C8.7914197 14.09264876 7.39549078 14.05188713 6 14 C4.88625 13.9690625 4.88625 13.9690625 3.75 13.9375 C0.62916177 12.26562238 -0.80946982 9.20631425 -2 6 C-1.72093023 1.72093023 -1.72093023 1.72093023 0 0 Z " fill="#1E90DE" transform="translate(18,78)"/>
<path d="M0 0 C1.32 0 2.64 0 4 0 C3.67 1.32 3.34 2.64 3 4 C3 3.01 3 2.02 3 1 C2.01 1.495 2.01 1.495 1 2 C1.33 2.99 1.66 3.98 2 5 C0.35 5.33 -1.3 5.66 -3 6 C-3 6.66 -3 7.32 -3 8 C-3.66 8 -4.32 8 -5 8 C-4.01 9.485 -4.01 9.485 -3 11 C0.58357241 11.25015873 0.58357241 11.25015873 4 11 C4 12.65 4 14.3 4 16 C-0.00748653 15.41512359 -2.85736768 14.15605425 -6.3125 12.0625 C-7.19550781 11.53785156 -8.07851563 11.01320313 -8.98828125 10.47265625 C-9.65214844 9.98667969 -10.31601562 9.50070313 -11 9 C-11 8.34 -11 7.68 -11 7 C-8.84765625 5.52734375 -8.84765625 5.52734375 -6.0625 3.9375 C-2.84169663 2.22531095 -2.84169663 2.22531095 0 0 Z " fill="#5AACBD" transform="translate(48,61)"/>
<path d="M0 0 C0.8971875 0.7734375 0.8971875 0.7734375 1.8125 1.5625 C1.8125 1.8925 1.8125 2.2225 1.8125 2.5625 C0.60013672 2.63597656 0.60013672 2.63597656 -0.63671875 2.7109375 C-1.70535156 2.78570312 -2.77398437 2.86046875 -3.875 2.9375 C-5.45861328 3.04191406 -5.45861328 3.04191406 -7.07421875 3.1484375 C-10.09427269 3.55010089 -12.42828054 4.30319019 -15.1875 5.5625 C-15.1875 4.9025 -15.1875 4.2425 -15.1875 3.5625 C-16.5075 3.5625 -17.8275 3.5625 -19.1875 3.5625 C-19.1875 2.5725 -19.1875 1.5825 -19.1875 0.5625 C-13.01362714 -2.24482262 -6.25671788 -2.82165708 0 0 Z " fill="#3099B8" transform="translate(39.1875,49.4375)"/>
<path d="M0 0 C19.8 0.495 19.8 0.495 40 1 C40.495 1.99 40.495 1.99 41 3 C27.8 3 14.6 3 1 3 C0.67 2.01 0.34 1.02 0 0 Z " fill="#C4EEEF" transform="translate(20,32)"/>
<path d="M0 0 C1 2 1 2 0.25 4.5625 C-1 7 -1 7 -4 8 C-4.4125 8.61875 -4.825 9.2375 -5.25 9.875 C-7.67672225 12.82173416 -10.49218221 13.63584864 -14 15 C-14.33 15.33 -14.66 15.66 -15 16 C-17.86267567 16.07325168 -20.700719 16.09238205 -23.5625 16.0625 C-24.36880859 16.05798828 -25.17511719 16.05347656 -26.00585938 16.04882812 C-28.00393756 16.03700518 -30.00197783 16.01906914 -32 16 C-32 17.65 -32 19.3 -32 21 C-32.99 20.67 -33.98 20.34 -35 20 C-34.34 20 -33.68 20 -33 20 C-33 18.35 -33 16.7 -33 15 C-31.76636719 14.96132812 -31.76636719 14.96132812 -30.5078125 14.921875 C-18.70285875 14.3220852 -10.25337367 11.71863738 -2 3 C-1.34 2.01 -0.68 1.02 0 0 Z " fill="#C7ECEB" transform="translate(85,57)"/>
<path d="M0 0 C0.66 0.33 1.32 0.66 2 1 C-1.625 5.875 -1.625 5.875 -5 7 C-6.39439664 7.06665376 -7.79169875 7.08538199 -9.1875 7.0625 C-11.0746875 7.0315625 -11.0746875 7.0315625 -13 7 C-12.67 6.01 -12.34 5.02 -12 4 C-19.26 3.67 -26.52 3.34 -34 3 C-34 2.67 -34 2.34 -34 2 C-32.50835327 1.96241577 -32.50835327 1.96241577 -30.98657227 1.92407227 C-27.30951253 1.83015118 -23.6326485 1.72989381 -19.95581055 1.62768555 C-18.362107 1.58427854 -16.7683552 1.54260781 -15.17456055 1.50268555 C-12.88836092 1.44512193 -10.60240551 1.38138851 -8.31640625 1.31640625 C-7.2413961 1.29133751 -7.2413961 1.29133751 -6.14466858 1.26576233 C-2.78472618 1.44981346 -2.78472618 1.44981346 0 0 Z " fill="#61BBBF" transform="translate(61,44)"/>
<path d="M0 0 C4.15667387 4.15667387 3.91102338 11.98369247 4.078125 17.6484375 C3.73291538 23.267683 1.95559322 26.04440678 -2 30 C-2.66 29.67 -3.32 29.34 -4 29 C-3.525625 28.2575 -3.05125 27.515 -2.5625 26.75 C1.30835092 19.93730238 0.64461877 11.36874995 -0.5625 3.8125 C-0.706875 2.884375 -0.85125 1.95625 -1 1 C-0.67 0.67 -0.34 0.34 0 0 Z " fill="#E4FBF4" transform="translate(90,27)"/>
<path d="M0 0 C0.99 0.33 1.98 0.66 3 1 C3.1875 4.375 3.1875 4.375 3 8 C-0.74004317 10.49336211 -3.62561609 10.25481228 -7.94921875 10.1953125 C-9.10814384 10.19106766 -9.10814384 10.19106766 -10.29048157 10.18673706 C-12.75631243 10.17554878 -15.22177906 10.15044703 -17.6875 10.125 C-19.36002079 10.11496843 -21.03254728 10.10584289 -22.70507812 10.09765625 C-26.80352559 10.07561392 -30.90170106 10.04109363 -35 10 C-34.67 9.34 -34.34 8.68 -34 8 C-18.16 8.495 -18.16 8.495 -2 9 C-2 8.34 -2 7.68 -2 7 C-1.34 7 -0.68 7 0 7 C0 4.69 0 2.38 0 0 Z " fill="#EDFEFD" transform="translate(61,35)"/>
<path d="M0 0 C4.29091564 4.05897426 7.67135522 7.27418151 8.3984375 13.3046875 C8.30720235 27.20284174 8.30720235 27.20284174 3.3125 32.9375 C2.879375 33.288125 2.44625 33.63875 2 34 C2.39565007 30.67653943 2.80497367 28.31984318 4.5625 25.4375 C6.79762732 20.09263033 6.22907386 14.7183622 6 9 C5.36578125 8.74476562 4.7315625 8.48953125 4.078125 8.2265625 C2 7 2 7 0.75 3.375 C0.5025 2.26125 0.255 1.1475 0 0 Z " fill="#B0EAD4" transform="translate(76,21)"/>
<path d="M0 0 C2.97 0.495 2.97 0.495 6 1 C5.01 1.495 5.01 1.495 4 2 C3.87625 3.010625 3.7525 4.02125 3.625 5.0625 C2.90959505 9.56955121 1.73733652 13.30819746 -1 17 C-3.75 18 -3.75 18 -6 18 C-5.195625 17.071875 -4.39125 16.14375 -3.5625 15.1875 C-0.15303146 10.50670421 -0.11208551 5.63484403 0 0 Z " fill="#E4FDFD" transform="translate(41,74)"/>
<path d="M0 0 C4.82029598 3.73572939 4.82029598 3.73572939 5.33203125 7.3359375 C5.31436669 9.5758033 5.21850902 11.77120799 5 14 C4.67 14 4.34 14 4 14 C4 12.02 4 10.04 4 8 C2.05925139 8.27617533 2.05925139 8.27617533 0 9 C-0.99 10.485 -0.99 10.485 -2 12 C-2.103125 11.071875 -2.20625 10.14375 -2.3125 9.1875 C-3.0070192 5.96745642 -3.47740939 4.97420135 -6 3 C-3.525 3.495 -3.525 3.495 -1 4 C-0.67 2.68 -0.34 1.36 0 0 Z " fill="#5DBDA5" transform="translate(66,30)"/>
<path d="M0 0 C0.33 0.99 0.66 1.98 1 3 C0.01 4.485 0.01 4.485 -1 6 C-4.125 6.1875 -4.125 6.1875 -7 6 C-7.66 4.68 -8.32 3.36 -9 2 C-8.34 2 -7.68 2 -7 2 C-7 1.34 -7 0.68 -7 0 C-3.89953913 -1.03348696 -2.94389782 -1.17755913 0 0 Z " fill="#2DA8C1" transform="translate(52,67)"/>
<path d="M0 0 C1.98 0 3.96 0 6 0 C6 1.32 6 2.64 6 4 C9.96 4.33 13.92 4.66 18 5 C18 5.33 18 5.66 18 6 C13.71 6 9.42 6 5 6 C5 4.68 5 3.36 5 2 C0.02790438 3.76429199 -4.43438061 6.3939166 -9 9 C-9 8.01 -9 7.02 -9 6 C-6.35261084 4.5393715 -5.10551666 4 -2 4 C-2 3.34 -2 2.68 -2 2 C-1.34 2 -0.68 2 0 2 C0 1.34 0 0.68 0 0 Z " fill="#D3F5F8" transform="translate(47,59)"/>
<path d="M0 0 C0.68383255 0.00424484 1.3676651 0.00848969 2.07221985 0.01286316 C4.25297686 0.02963522 6.43280434 0.06728218 8.61328125 0.10546875 C10.0930856 0.12051761 11.57290445 0.13420567 13.05273438 0.14648438 C16.67738461 0.17953306 20.30149219 0.23130429 23.92578125 0.29296875 C23.92578125 0.62296875 23.92578125 0.95296875 23.92578125 1.29296875 C22.75390259 1.33055298 22.75390259 1.33055298 21.55834961 1.36889648 C17.99318508 1.48547078 14.42824512 1.6079174 10.86328125 1.73046875 C9.01959961 1.78944336 9.01959961 1.78944336 7.13867188 1.84960938 C1.33343631 2.05302733 -4.34953945 2.28072977 -10.07421875 3.29296875 C-7.34874536 -0.52445521 -4.43595216 -0.05431778 0 0 Z " fill="#BBE5ED" transform="translate(35.07421875,52.70703125)"/>
<path d="M0 0 C0.66 0.33 1.32 0.66 2 1 C1.01 2.98 0.02 4.96 -1 7 C-1.66 7 -2.32 7 -3 7 C-3 7.99 -3 8.98 -3 10 C-3.66 10 -4.32 10 -5 10 C-4.649375 10.9075 -4.29875 11.815 -3.9375 12.75 C-3.03531221 15.87758436 -2.86618493 17.05208081 -4 20 C-6.00849574 15.85747753 -6.48262992 12.5849842 -6 8 C-4.24505919 4.89960457 -2.51174333 2.51174333 0 0 Z " fill="#6BB4BD" transform="translate(20,8)"/>
<path d="M0 0 C3.40312738 1.05875074 6.01353231 2.00902154 9 4 C9.1875 6.625 9.1875 6.625 9 9 C7.68 9 6.36 9 5 9 C5 7.68 5 6.36 5 5 C2.525 4.01 2.525 4.01 0 3 C0 2.01 0 1.02 0 0 Z " fill="#49CD93" transform="translate(73,14)"/>
<path d="M0 0 C2 3 2 3 2 5 C-0.75 6.625 -0.75 6.625 -4 8 C-6.375 7.1875 -6.375 7.1875 -8 6 C-5.63379989 3.38472619 -3.057952 1.73559438 0 0 Z " fill="#47B2AD" transform="translate(76,61)"/>
<path d="M0 0 C0.99 0.33 1.98 0.66 3 1 C-0.80045008 4.81089087 -5.1628192 4.75429476 -10.25 5.1875 C-11.09046875 5.26935547 -11.9309375 5.35121094 -12.796875 5.43554688 C-14.86350783 5.63516482 -16.93164248 5.81912511 -19 6 C-19 5.01 -19 4.02 -19 3 C-17.79601563 2.95101562 -16.59203125 2.90203125 -15.3515625 2.8515625 C-13.77601802 2.77653657 -12.20049834 2.70098867 -10.625 2.625 C-9.8309375 2.5940625 -9.036875 2.563125 -8.21875 2.53125 C-3.63332625 2.48183579 -3.63332625 2.48183579 0 0 Z " fill="#E5FEFE" transform="translate(72,70)"/>
<path d="M0 0 C5.65128923 -0.3459973 9.11575268 0.31845245 14 3 C15.4375 5.1875 15.4375 5.1875 16 7 C15.29488281 6.71382812 14.58976562 6.42765625 13.86328125 6.1328125 C10.98794768 4.99523169 8.09547814 3.92607644 5.1875 2.875 C4.21167969 2.52179687 3.23585938 2.16859375 2.23046875 1.8046875 C1.49441406 1.53914062 0.75835937 1.27359375 0 1 C0 0.67 0 0.34 0 0 Z " fill="#D7F8EC" transform="translate(62,6)"/>
<path d="M0 0 C0.391875 0.45375 0.78375 0.9075 1.1875 1.375 C4.16372421 4.04333895 6.89582652 5.00894068 10.89453125 4.9765625 C12.33892578 4.80253906 12.33892578 4.80253906 13.8125 4.625 C14.78832031 4.51414062 15.76414062 4.40328125 16.76953125 4.2890625 C17.87361328 4.14597656 17.87361328 4.14597656 19 4 C18.67 4.66 18.34 5.32 18 6 C12.76655404 7.74448199 7.12042565 7.67853621 1.875 6 C1.25625 5.67 0.6375 5.34 0 5 C0 3.35 0 1.7 0 0 Z " fill="#C2EAF9" transform="translate(16,88)"/>
<path d="M0 0 C0.33 0.99 0.66 1.98 1 3 C-2.73672249 6.73672249 -5.76453114 7.5932092 -10.81640625 8.21484375 C-13.61572478 7.93941885 -14.91310054 6.82189635 -17 5 C-15.77023438 5.03480469 -15.77023438 5.03480469 -14.515625 5.0703125 C-13.43796875 5.08835937 -12.3603125 5.10640625 -11.25 5.125 C-10.18265625 5.14820312 -9.1153125 5.17140625 -8.015625 5.1953125 C-5.03902932 5.00252781 -3.42102537 4.7082936 -1 3 C-0.67 2.01 -0.34 1.02 0 0 Z " fill="#3B8CBD" transform="translate(37,86)"/>
<path d="M0 0 C0.99 0.33 1.98 0.66 3 1 C-3 7 -3 7 -4.84765625 7.09765625 C-6.8984375 7.06510417 -8.94921875 7.03255208 -11 7 C-10.67 6.01 -10.34 5.02 -10 4 C-7.68529088 3.27129528 -5.3494053 2.60760482 -3 2 C-2.01 1.34 -1.02 0.68 0 0 Z " fill="#208CCF" transform="translate(35,85)"/>
<path d="M0 0 C-2 2 -2 2 -5.9140625 2.1953125 C-7.48449351 2.18200376 -9.05486221 2.15813602 -10.625 2.125 C-11.42679688 2.11597656 -12.22859375 2.10695313 -13.0546875 2.09765625 C-15.03658523 2.07406223 -17.01832981 2.03819065 -19 2 C-19 3.65 -19 5.3 -19 7 C-19.99 6.67 -20.98 6.34 -22 6 C-21.34 6 -20.68 6 -20 6 C-20 4.35 -20 2.7 -20 1 C-18.64455078 0.90912109 -18.64455078 0.90912109 -17.26171875 0.81640625 C-15.49248047 0.69072266 -15.49248047 0.69072266 -13.6875 0.5625 C-12.51574219 0.48128906 -11.34398437 0.40007812 -10.13671875 0.31640625 C-1.71710526 -0.53289474 -1.71710526 -0.53289474 0 0 Z " fill="#B7E7EB" transform="translate(72,71)"/>
<path d="M0 0 C0.99 0.33 1.98 0.66 3 1 C3.125 4.375 3.125 4.375 3 8 C2.34 8.66 1.68 9.32 1 10 C0.67 8.35 0.34 6.7 0 5 C-0.33 5.66 -0.66 6.32 -1 7 C-1.66 7 -2.32 7 -3 7 C-3 7.66 -3 8.32 -3 9 C-3.66 8.67 -4.32 8.34 -5 8 C-3.35 5.36 -1.7 2.72 0 0 Z " fill="#4CB2A1" transform="translate(67,37)"/>
<path d="M0 0 C0.33 0 0.66 0 1 0 C1.01981934 0.57967529 1.03963867 1.15935059 1.06005859 1.7565918 C1.15572601 4.40065937 1.26523453 7.0439817 1.375 9.6875 C1.4059375 10.59951172 1.436875 11.51152344 1.46875 12.45117188 C1.66776954 17.01203631 1.85690122 20.86190275 4 25 C3.01 25 2.02 25 1 25 C-0.27861615 22.44276771 -0.11336609 20.63262898 -0.09765625 17.7734375 C-0.09443359 16.7421875 -0.09121094 15.7109375 -0.08789062 14.6484375 C-0.07951172 13.56820312 -0.07113281 12.48796875 -0.0625 11.375 C-0.05798828 10.28703125 -0.05347656 9.1990625 -0.04882812 8.078125 C-0.03701776 5.38536211 -0.02054778 2.69270812 0 0 Z " fill="#DDF8FC" transform="translate(12,63)"/>
<path d="M0 0 C0.33 0 0.66 0 1 0 C1.10854617 2.39706123 1.18753157 4.78915838 1.25 7.1875 C1.28351563 7.86103516 1.31703125 8.53457031 1.3515625 9.22851562 C1.42503051 12.99375127 1.11393243 14.83108854 -1.015625 17.98828125 C-1.99789062 18.98408203 -1.99789062 18.98408203 -3 20 C-3.66 19.67 -4.32 19.34 -5 19 C-4.52949219 18.32582031 -4.05898437 17.65164062 -3.57421875 16.95703125 C-1.7201537 13.47433337 -1.28707434 10.5936119 -0.8125 6.6875 C-0.65394531 5.43324219 -0.49539062 4.17898437 -0.33203125 2.88671875 C-0.22246094 1.93410156 -0.11289063 0.98148438 0 0 Z " fill="#D1F8ED" transform="translate(91,37)"/>
<path d="M0 0 C0.125 7.625 0.125 7.625 -1 11 C-1.66 11 -2.32 11 -3 11 C-4.31626692 7.38026598 -5 4.90432869 -5 1 C-1.125 0 -1.125 0 0 0 Z " fill="#3CA3B4" transform="translate(20,17)"/>
<path d="M0 0 C0.66 0.33 1.32 0.66 2 1 C2.6328125 3.50390625 2.6328125 3.50390625 3.125 6.5625 C3.29257813 7.57441406 3.46015625 8.58632813 3.6328125 9.62890625 C3.75398438 10.41136719 3.87515625 11.19382812 4 12 C3.34 12 2.68 12 2 12 C1.7525 11.38125 1.505 10.7625 1.25 10.125 C-0.20628639 7.64931313 -1.37812506 7.04874998 -4 6 C-2.68 5.67 -1.36 5.34 0 5 C0 3.35 0 1.7 0 0 Z " fill="#5DCF9C" transform="translate(82,18)"/>
<path d="M0 0 C2.87328071 0.31925341 4.75877438 0.84148031 7.1875 2.4375 C9.90088577 6.27366608 10.33458524 10.41214035 11 15 C8.24196538 13.62098269 8.0912388 11.72898104 6.99609375 8.98828125 C5.26119743 5.52529212 2.63530061 2.80587023 0 0 Z " fill="#C8F6E2" transform="translate(78,13)"/>
<path d="M0 0 C0.66 0.33 1.32 0.66 2 1 C1.938125 2.010625 1.87625 3.02125 1.8125 4.0625 C2.02642827 8.55499372 3.04613532 11.01085961 5 15 C3.125 14.75 3.125 14.75 1 14 C-1.15942137 10.79004931 -1.1205511 8.51618837 -0.625 4.75 C-0.51414062 3.85796875 -0.40328125 2.9659375 -0.2890625 2.046875 C-0.19367187 1.37140625 -0.09828125 0.6959375 0 0 Z " fill="#D5F5F8" transform="translate(13,15)"/>
<path d="M0 0 C0.495 0.7425 0.495 0.7425 1 1.5 C4.17572747 3.88179561 7.10246066 3.19168226 11 3 C11.33 2.01 11.66 1.02 12 0 C12.33 0.66 12.66 1.32 13 2 C12.0625 4.0625 12.0625 4.0625 10 6 C6.92889402 6.05989746 4.00988272 5.58052245 1 5 C0.67 3.35 0.34 1.7 0 0 Z " fill="#409ACE" transform="translate(21,83)"/>
<path d="M0 0 C-5.01986699 3.01667085 -8.71323804 3.38714622 -14.375 3.1875 C-15.11105469 3.17396484 -15.84710938 3.16042969 -16.60546875 3.14648438 C-18.40396743 3.11144869 -20.20208422 3.05765288 -22 3 C-22 2.67 -22 2.34 -22 2 C-21.11957031 1.95101562 -20.23914062 1.90203125 -19.33203125 1.8515625 C-18.17058594 1.77679688 -17.00914063 1.70203125 -15.8125 1.625 C-14.08966797 1.52058594 -14.08966797 1.52058594 -12.33203125 1.4140625 C-0.23937851 -0.08865871 -0.23937851 -0.08865871 0 0 Z " fill="#6EB9BE" transform="translate(74,63)"/>
<path d="M0 0 C0.66 0.33 1.32 0.66 2 1 C-0.04490065 3.26597099 -1.3237738 4.6441803 -4 6 C-7.75547372 6.14424316 -11.30801081 5.66350695 -15 5 C-15 4.67 -15 4.34 -15 4 C-14.16855469 3.87882812 -13.33710938 3.75765625 -12.48046875 3.6328125 C-11.39378906 3.46523437 -10.30710937 3.29765625 -9.1875 3.125 C-8.10855469 2.96257812 -7.02960937 2.80015625 -5.91796875 2.6328125 C-2.82678207 2.14867662 -2.82678207 2.14867662 0 0 Z " fill="#EBFEFE" transform="translate(37,91)"/>
<path d="M0 0 C0.33 0 0.66 0 1 0 C1.40528634 10.33480176 1.40528634 10.33480176 -1 14 C-3.625 14.8125 -3.625 14.8125 -6 15 C-5.195625 14.01 -4.39125 13.02 -3.5625 12 C-0.67317108 8.00880836 -0.25616233 4.86708428 0 0 Z " fill="#C5EDF9" transform="translate(41,77)"/>
<path d="M0 0 C1.32 0.33 2.64 0.66 4 1 C2.57277341 2.1998278 1.13284224 3.3845576 -0.3125 4.5625 C-1.51326172 5.55443359 -1.51326172 5.55443359 -2.73828125 6.56640625 C-3.85783203 7.27603516 -3.85783203 7.27603516 -5 8 C-5.99 7.67 -6.98 7.34 -8 7 C-8 6.34 -8 5.68 -8 5 C-6.35 5 -4.7 5 -3 5 C-3 4.34 -3 3.68 -3 3 C-2.01 3 -1.02 3 0 3 C0 2.01 0 1.02 0 0 Z " fill="#D0F4F3" transform="translate(74,56)"/>
<path d="M0 0 C3.63 0.66 7.26 1.32 11 2 C10.67 2.66 10.34 3.32 10 4 C7.36 4 4.72 4 2 4 C2 3.34 2 2.68 2 2 C1.34 2 0.68 2 0 2 C0 1.34 0 0.68 0 0 Z " fill="#36AABA" transform="translate(21,27)"/>
<path d="M0 0 C0.99 0.33 1.98 0.66 3 1 C3 3.31 3 5.62 3 8 C2.01 8.33 1.02 8.66 0 9 C0 6.03 0 3.06 0 0 Z " fill="#C5F3ED" transform="translate(61,35)"/>
<path d="M0 0 C0.33 0 0.66 0 1 0 C1.50423019 5.29441695 0.18923033 7.81413519 -3 12 C-4.21386936 8.35839192 -3.6674695 7.66834531 -2.0625 4.3125 C-1.49208984 3.10013672 -1.49208984 3.10013672 -0.91015625 1.86328125 C-0.60980469 1.24839844 -0.30945313 0.63351563 0 0 Z " fill="#CEFAF3" transform="translate(82,43)"/>
<path d="M0 0 C-0.99 0.66 -1.98 1.32 -3 2 C-5.45664952 3.91738499 -7.79582183 5.79582183 -10 8 C-9.64505955 5.37344067 -9.27538036 3.42031739 -7.8125 1.1875 C-5.20638339 -0.51995571 -3.0400645 -0.20267097 0 0 Z " fill="#DDFAFC" transform="translate(25,6)"/>
<path d="M0 0 C0.81210937 0.24556641 0.81210937 0.24556641 1.640625 0.49609375 C4.40222593 1.08590587 6.92818139 1.09609308 9.75 1.0625 C10.73484375 1.05347656 11.7196875 1.04445312 12.734375 1.03515625 C13.48203125 1.02355469 14.2296875 1.01195312 15 1 C13 3 13 3 10.46875 3.23046875 C8.99921875 3.20919922 8.99921875 3.20919922 7.5 3.1875 C6.03046875 3.17783203 6.03046875 3.17783203 4.53125 3.16796875 C2 3 2 3 0 2 C0 1.34 0 0.68 0 0 Z " fill="#E9FEFE" transform="translate(53,61)"/>
<path d="M0 0 C3.44216672 2.6598561 3.99504674 5.90288286 5 10 C4.01 10.495 4.01 10.495 3 11 C0 4.5 0 4.5 0 0 Z " fill="#73CDA6" transform="translate(84,20)"/>
<path d="M0 0 C2.10633718 1.70828921 2.93801608 2.52148416 3.29296875 5.26171875 C3.25816406 6.06222656 3.22335938 6.86273438 3.1875 7.6875 C3.16042969 8.49574219 3.13335937 9.30398437 3.10546875 10.13671875 C3.07066406 10.75160156 3.03585938 11.36648437 3 12 C2.67 12 2.34 12 2 12 C2 10.02 2 8.04 2 6 C1.34 6 0.68 6 0 6 C0 4.02 0 2.04 0 0 Z " fill="#7BC2B5" transform="translate(68,32)"/>
<path d="M0 0 C0.66 0.33 1.32 0.66 2 1 C0.515 3.475 0.515 3.475 -1 6 C-2.32 5.67 -3.64 5.34 -5 5 C-5 4.34 -5 3.68 -5 3 C-2.625 1.3125 -2.625 1.3125 0 0 Z " fill="#76B4C0" transform="translate(42,65)"/>
<path d="M0 0 C0.99 0 1.98 0 3 0 C2.42655063 2.86724686 2.1385485 3.8614515 0 6 C-0.66 6 -1.32 6 -2 6 C-1.49396008 3.83125748 -1.00016187 2.00032373 0 0 Z " fill="#319CD5" transform="translate(18,56)"/>
<path d="M0 0 C0.6875 1.75 0.6875 1.75 1 4 C-0.3125 6.25 -0.3125 6.25 -2 8 C-2.66 8 -3.32 8 -4 8 C-2.25 2.25 -2.25 2.25 0 0 Z " fill="#5DA7C6" transform="translate(19,51)"/>
<path d="M0 0 C0.99 0.33 1.98 0.66 3 1 C1.3125 3.0625 1.3125 3.0625 -1 5 C-3.75 4.75 -3.75 4.75 -6 4 C-5.38125 3.71125 -4.7625 3.4225 -4.125 3.125 C-1.86674235 2.06279958 -1.86674235 2.06279958 0 0 Z " fill="#5CB1AA" transform="translate(65,47)"/>
<path d="M0 0 C2.5625 2.25 2.5625 2.25 5 5 C4.8125 7.3125 4.8125 7.3125 4 9 C1.47740939 7.02579865 1.0070192 6.03254358 0.3125 2.8125 C0.209375 1.884375 0.10625 0.95625 0 0 Z " fill="#D0F8E6" transform="translate(76,21)"/>
<path d="M0 0 C2.97 0.99 5.94 1.98 9 3 C9 3.33 9 3.66 9 4 C6.69 4 4.38 4 2 4 C1.34 2.68 0.68 1.36 0 0 Z " fill="#7FCCB2" transform="translate(64,7)"/>
</svg>
